G04 #@! TF.FileFunction,Copper,L2,Bot,Signal*
%FSLAX46Y46*%
G04 Gerber Fmt 4.6, Leading zero omitted, Abs format (unit mm)*
G04 Created by KiCad (PCBNEW 4.0.2+dfsg1-stable) date Fri 22 Sep 2017 10:08:28 AM EDT*
%MOMM*%
G01*
G04 APERTURE LIST*
%ADD10C,0.100000*%
%ADD11R,1.300000X1.300000*%
%ADD12C,1.300000*%
%ADD13R,1.400000X1.400000*%
%ADD14C,1.400000*%
%ADD15R,2.000000X1.900000*%
%ADD16C,1.900000*%
%ADD17O,5.001260X3.500120*%
%ADD18C,1.600200*%
%ADD19C,1.998980*%
%ADD20O,1.524000X2.540000*%
%ADD21C,3.937000*%
%ADD22O,1.600000X1.600000*%
%ADD23O,1.501140X2.499360*%
%ADD24C,1.143000*%
%ADD25C,0.600000*%
%ADD26C,0.500000*%
%ADD27C,0.250000*%
G04 APERTURE END LIST*
D10*
D11*
X213360000Y-92392500D03*
D12*
X213360000Y-90392500D03*
D11*
X191643000Y-90995500D03*
D12*
X191643000Y-88995500D03*
D13*
X194310000Y-96647000D03*
D14*
X189310000Y-96647000D03*
D11*
X209296000Y-72390000D03*
D12*
X209296000Y-74390000D03*
D11*
X209296000Y-81407000D03*
D12*
X209296000Y-83407000D03*
D15*
X150558500Y-76517500D03*
D16*
X150558500Y-79057500D03*
D17*
X152882600Y-64851280D03*
X152882600Y-54653180D03*
D18*
X157147260Y-59753500D03*
X157147260Y-62252860D03*
D17*
X153263600Y-101808280D03*
X153263600Y-91610180D03*
D18*
X157528260Y-96710500D03*
X157528260Y-99209860D03*
D19*
X153479500Y-76517500D03*
X163639500Y-76517500D03*
D20*
X212001100Y-102463600D03*
X209461100Y-102463600D03*
X206921100Y-102463600D03*
X199301100Y-102463600D03*
X201841100Y-102463600D03*
X204381100Y-102463600D03*
X194221100Y-102463600D03*
X191681100Y-102463600D03*
X189141100Y-102463600D03*
X184061100Y-102463600D03*
X181521100Y-102463600D03*
X212001100Y-54203600D03*
X209461100Y-54203600D03*
X206921100Y-54203600D03*
X204381100Y-54203600D03*
X201841100Y-54203600D03*
X199301100Y-54203600D03*
X196761100Y-54203600D03*
X194221100Y-54203600D03*
X190157100Y-54203600D03*
X187617100Y-54203600D03*
X185077100Y-54203600D03*
X182537100Y-54203600D03*
X179997100Y-54203600D03*
X177457100Y-54203600D03*
X174917100Y-54203600D03*
X172377100Y-54203600D03*
X186601100Y-102463600D03*
D21*
X214541100Y-97383600D03*
X214541100Y-69443600D03*
X163741100Y-54203600D03*
X162471100Y-102463600D03*
D22*
X164401500Y-61785500D03*
X164401500Y-64325500D03*
X164401500Y-66865500D03*
X164401500Y-69405500D03*
X172021500Y-69405500D03*
X172021500Y-66865500D03*
X172021500Y-64325500D03*
X172021500Y-61785500D03*
X205168500Y-96647000D03*
X205168500Y-94107000D03*
X205168500Y-91567000D03*
X205168500Y-89027000D03*
X197548500Y-89027000D03*
X197548500Y-91567000D03*
X197548500Y-94107000D03*
X197548500Y-96647000D03*
X184658000Y-69532500D03*
X184658000Y-66992500D03*
X184658000Y-64452500D03*
X184658000Y-61912500D03*
X177038000Y-61912500D03*
X177038000Y-64452500D03*
X177038000Y-66992500D03*
X177038000Y-69532500D03*
D23*
X200152000Y-67119500D03*
X197612000Y-67119500D03*
X202692000Y-67119500D03*
X200088500Y-81407000D03*
X197548500Y-81407000D03*
X202628500Y-81407000D03*
D24*
X172656500Y-80010000D03*
X178054000Y-79946500D03*
X184658000Y-80010000D03*
D25*
X187960000Y-85090000D03*
X184848500Y-57086500D03*
D26*
X189310000Y-96647000D02*
X191643000Y-96647000D01*
D27*
X152882600Y-54653180D02*
X153078180Y-54653180D01*
D26*
X153078180Y-54653180D02*
X156210000Y-57785000D01*
X171335700Y-57785000D02*
X174917100Y-54203600D01*
X156210000Y-57785000D02*
X171335700Y-57785000D01*
X163639500Y-76517500D02*
X169164000Y-76517500D01*
X169164000Y-76517500D02*
X172656500Y-80010000D01*
D27*
X184658000Y-64452500D02*
X183769000Y-64452500D01*
X174917100Y-55600600D02*
X174917100Y-54203600D01*
D26*
X183769000Y-64452500D02*
X174917100Y-55600600D01*
X209296000Y-74390000D02*
X200152000Y-74390000D01*
D27*
X200152000Y-74390000D02*
X200152000Y-74612500D01*
D26*
X200152000Y-67119500D02*
X200152000Y-74612500D01*
X200152000Y-74612500D02*
X200152000Y-81343500D01*
D27*
X200152000Y-81343500D02*
X200088500Y-81407000D01*
D26*
X209296000Y-83407000D02*
X203041500Y-83407000D01*
X203041500Y-83407000D02*
X200088500Y-86360000D01*
X191643000Y-90995500D02*
X191643000Y-96647000D01*
X191643000Y-96647000D02*
X191643000Y-102425500D01*
D27*
X191643000Y-102425500D02*
X191681100Y-102463600D01*
D26*
X205168500Y-91567000D02*
X202247500Y-91567000D01*
X194195700Y-99949000D02*
X191681100Y-102463600D01*
X198818500Y-99949000D02*
X194195700Y-99949000D01*
X200342500Y-98425000D02*
X198818500Y-99949000D01*
X200342500Y-93472000D02*
X200342500Y-98425000D01*
X202247500Y-91567000D02*
X200342500Y-93472000D01*
D27*
X205168500Y-91567000D02*
X202120500Y-91567000D01*
D26*
X200088500Y-89535000D02*
X200088500Y-86360000D01*
X200088500Y-86360000D02*
X200088500Y-81407000D01*
X202120500Y-91567000D02*
X200088500Y-89535000D01*
X153263600Y-91610180D02*
X153263600Y-86893400D01*
X153263600Y-86893400D02*
X163639500Y-76517500D01*
X157147260Y-62252860D02*
X157147260Y-70025260D01*
X157147260Y-70025260D02*
X163639500Y-76517500D01*
X152882600Y-64851280D02*
X152882600Y-54653180D01*
X157147260Y-62252860D02*
X155481020Y-62252860D01*
X155481020Y-62252860D02*
X152882600Y-64851280D01*
X153263600Y-101808280D02*
X153263600Y-91610180D01*
X157528260Y-99209860D02*
X155862020Y-99209860D01*
X155862020Y-99209860D02*
X153263600Y-101808280D01*
X186601100Y-102463600D02*
X186601100Y-93700600D01*
X180721000Y-65595500D02*
X177038000Y-61912500D01*
X180721000Y-87820500D02*
X180721000Y-65595500D01*
X186601100Y-93700600D02*
X180721000Y-87820500D01*
X153479500Y-76517500D02*
X150558500Y-76517500D01*
D27*
X194221100Y-54203600D02*
X194221100Y-54013100D01*
D26*
X194221100Y-54013100D02*
X195846700Y-52387500D01*
X195846700Y-52387500D02*
X212788500Y-52387500D01*
X212788500Y-52387500D02*
X213614000Y-53213000D01*
X213614000Y-53213000D02*
X213614000Y-59055000D01*
X213614000Y-59055000D02*
X211709000Y-60960000D01*
X211709000Y-60960000D02*
X201041000Y-60960000D01*
X201041000Y-60960000D02*
X188214000Y-73787000D01*
X188214000Y-73787000D02*
X188214000Y-84836000D01*
D27*
X188214000Y-84836000D02*
X187960000Y-85090000D01*
X164401500Y-66865500D02*
X164259260Y-66865500D01*
D26*
X164259260Y-66865500D02*
X157147260Y-59753500D01*
D27*
X197548500Y-96647000D02*
X197104000Y-96647000D01*
D26*
X197104000Y-96647000D02*
X193548000Y-93091000D01*
X193548000Y-71183500D02*
X197612000Y-67119500D01*
X193548000Y-93091000D02*
X193548000Y-71183500D01*
X184658000Y-69532500D02*
X184658000Y-80010000D01*
X184658000Y-69532500D02*
X189052200Y-69532500D01*
X189052200Y-69532500D02*
X204381100Y-54203600D01*
X184658000Y-57277000D02*
X184658000Y-61912500D01*
D27*
X184848500Y-57086500D02*
X184658000Y-57277000D01*
D26*
X172021500Y-66865500D02*
X174625000Y-66865500D01*
X174815500Y-76708000D02*
X178054000Y-79946500D01*
X174815500Y-67056000D02*
X174815500Y-76708000D01*
D27*
X174625000Y-66865500D02*
X174815500Y-67056000D01*
D26*
X164401500Y-64325500D02*
X169481500Y-64325500D01*
X169481500Y-64325500D02*
X172021500Y-66865500D01*
M02*
