M48
;DRILL file {KiCad 4.0.2+dfsg1-stable} date Fri 22 Sep 2017 10:08:31 AM EDT
;FORMAT={-:-/ absolute / inch / decimal}
FMAT,2
INCH,TZ
T1C0.016
T2C0.025
T3C0.031
T4C0.032
T5C0.035
T6C0.039
T7C0.087
T8C0.125
%
G90
G05
M72
T1
X7.2775Y-2.2475
X7.4Y-3.35
T2
X6.7975Y-3.15
X7.01Y-3.1475
X7.27Y-3.15
T3
X6.4725Y-2.4325
X6.4725Y-2.5325
X6.4725Y-2.6325
X6.4725Y-2.7325
X6.7725Y-2.4325
X6.7725Y-2.5325
X6.7725Y-2.6325
X6.7725Y-2.7325
X6.97Y-2.4375
X6.97Y-2.5375
X6.97Y-2.6375
X6.97Y-2.7375
X7.27Y-2.4375
X7.27Y-2.5375
X7.27Y-2.6375
X7.27Y-2.7375
X7.545Y-3.5038
X7.545Y-3.5825
X7.7775Y-3.505
X7.7775Y-3.605
X7.7775Y-3.705
X7.7775Y-3.805
X8.0775Y-3.505
X8.0775Y-3.605
X8.0775Y-3.705
X8.0775Y-3.805
X8.24Y-2.85
X8.24Y-2.9287
X8.24Y-3.205
X8.24Y-3.2837
X8.4Y-3.5588
X8.4Y-3.6375
T4
X6.7865Y-2.134
X6.8865Y-2.134
X6.9865Y-2.134
X7.0865Y-2.134
X7.1465Y-4.034
X7.1865Y-2.134
X7.2465Y-4.034
X7.2865Y-2.134
X7.3465Y-4.034
X7.3865Y-2.134
X7.4465Y-4.034
X7.4865Y-2.134
X7.5465Y-4.034
X7.6465Y-2.134
X7.6465Y-4.034
X7.7465Y-2.134
X7.8465Y-2.134
X7.8465Y-4.034
X7.9465Y-2.134
X7.9465Y-4.034
X8.0465Y-2.134
X8.0465Y-4.034
X8.1465Y-2.134
X8.1465Y-4.034
X8.2465Y-2.134
X8.2465Y-4.034
X8.3465Y-2.134
X8.3465Y-4.034
T5
X7.4531Y-3.805
X7.65Y-3.805
T6
X5.9275Y-3.0125
X5.9275Y-3.1125
X6.0425Y-3.0125
X6.1869Y-2.3525
X6.1869Y-2.4509
X6.2019Y-3.8075
X6.2019Y-3.9059
X6.4425Y-3.0125
X7.7775Y-3.205
X7.78Y-2.6425
X7.8775Y-3.205
X7.88Y-2.6425
X7.9775Y-3.205
X7.98Y-2.6425
T7
X6.019Y-2.1517
X6.019Y-2.5532
X6.034Y-3.6067
X6.034Y-4.0082
T8
X6.3965Y-4.034
X6.4465Y-2.134
X8.4465Y-2.734
X8.4465Y-3.834
T0
M30
