G04 #@! TF.FileFunction,Soldermask,Top*
%FSLAX46Y46*%
G04 Gerber Fmt 4.6, Leading zero omitted, Abs format (unit mm)*
G04 Created by KiCad (PCBNEW 4.0.2+dfsg1-stable) date Fri 22 Sep 2017 10:08:28 AM EDT*
%MOMM*%
G01*
G04 APERTURE LIST*
%ADD10C,0.100000*%
%ADD11R,1.300000X1.300000*%
%ADD12C,1.300000*%
%ADD13R,1.400000X1.400000*%
%ADD14C,1.400000*%
%ADD15R,2.000000X1.900000*%
%ADD16C,1.900000*%
%ADD17O,5.001260X3.500120*%
%ADD18C,1.600200*%
%ADD19C,1.998980*%
%ADD20O,1.524000X2.540000*%
%ADD21C,3.937000*%
%ADD22O,1.600000X1.600000*%
%ADD23O,1.501140X2.499360*%
%ADD24C,1.143000*%
G04 APERTURE END LIST*
D10*
D11*
X213360000Y-92392500D03*
D12*
X213360000Y-90392500D03*
D11*
X191643000Y-90995500D03*
D12*
X191643000Y-88995500D03*
D13*
X194310000Y-96647000D03*
D14*
X189310000Y-96647000D03*
D11*
X209296000Y-72390000D03*
D12*
X209296000Y-74390000D03*
D11*
X209296000Y-81407000D03*
D12*
X209296000Y-83407000D03*
D15*
X150558500Y-76517500D03*
D16*
X150558500Y-79057500D03*
D17*
X152882600Y-64851280D03*
X152882600Y-54653180D03*
D18*
X157147260Y-59753500D03*
X157147260Y-62252860D03*
D17*
X153263600Y-101808280D03*
X153263600Y-91610180D03*
D18*
X157528260Y-96710500D03*
X157528260Y-99209860D03*
D19*
X153479500Y-76517500D03*
X163639500Y-76517500D03*
D20*
X212001100Y-102463600D03*
X209461100Y-102463600D03*
X206921100Y-102463600D03*
X199301100Y-102463600D03*
X201841100Y-102463600D03*
X204381100Y-102463600D03*
X194221100Y-102463600D03*
X191681100Y-102463600D03*
X189141100Y-102463600D03*
X184061100Y-102463600D03*
X181521100Y-102463600D03*
X212001100Y-54203600D03*
X209461100Y-54203600D03*
X206921100Y-54203600D03*
X204381100Y-54203600D03*
X201841100Y-54203600D03*
X199301100Y-54203600D03*
X196761100Y-54203600D03*
X194221100Y-54203600D03*
X190157100Y-54203600D03*
X187617100Y-54203600D03*
X185077100Y-54203600D03*
X182537100Y-54203600D03*
X179997100Y-54203600D03*
X177457100Y-54203600D03*
X174917100Y-54203600D03*
X172377100Y-54203600D03*
X186601100Y-102463600D03*
D21*
X214541100Y-97383600D03*
X214541100Y-69443600D03*
X163741100Y-54203600D03*
X162471100Y-102463600D03*
D22*
X164401500Y-61785500D03*
X164401500Y-64325500D03*
X164401500Y-66865500D03*
X164401500Y-69405500D03*
X172021500Y-69405500D03*
X172021500Y-66865500D03*
X172021500Y-64325500D03*
X172021500Y-61785500D03*
X205168500Y-96647000D03*
X205168500Y-94107000D03*
X205168500Y-91567000D03*
X205168500Y-89027000D03*
X197548500Y-89027000D03*
X197548500Y-91567000D03*
X197548500Y-94107000D03*
X197548500Y-96647000D03*
X184658000Y-69532500D03*
X184658000Y-66992500D03*
X184658000Y-64452500D03*
X184658000Y-61912500D03*
X177038000Y-61912500D03*
X177038000Y-64452500D03*
X177038000Y-66992500D03*
X177038000Y-69532500D03*
D23*
X200152000Y-67119500D03*
X197612000Y-67119500D03*
X202692000Y-67119500D03*
X200088500Y-81407000D03*
X197548500Y-81407000D03*
X202628500Y-81407000D03*
D24*
X172656500Y-80010000D03*
X178054000Y-79946500D03*
X184658000Y-80010000D03*
M02*
